<svg version="1" xmlns="http://www.w3.org/2000/svg" width="1333.333" height="1333.333" viewBox="0 0 1000.000000 1000.000000"><path d="M473.9 8.4c-.2.2-4.9.6-10.4 1s-11.8.8-14 1.1c-2.2.2-6.5.6-9.6.9-6.2.6-10.6 1.2-18.9 2.6-3 .5-7.7 1.2-10.4 1.5-2.8.4-5.3.8-5.7 1-.4.3-2.4.7-4.5 1.1-2.2.3-5.5.9-7.4 1.4-1.9.5-4.6 1.1-6 1.3-20.7 3.7-69 19.2-92.5 29.7-16.6 7.4-37.6 17.8-47.5 23.5-3.6 2.1-7.5 4.3-8.8 5-1.2.7-8.4 5.1-16 9.9-30.1 19.1-57.8 41.5-85.6 69.2C94.4 199.7 58.4 253.5 35.3 309c-7.9 18.9-18.6 50.9-20.8 61.8-.2.9-1.2 5.3-2.3 9.7-1.1 4.4-2.5 10.5-3.1 13.5-.6 3-1.4 6.6-1.6 8-.3 1.4-1 5.6-1.6 9.5-.5 3.8-1.1 7.9-1.3 9-.2 1.1-.7 4.9-1.1 8.5-.4 3.6-.8 7.6-1.1 9-2.5 16.4-2.5 82.2.1 95.5.2 1.1.6 4.2.9 7 1.8 16.3 6.9 44 10.6 57.5 11 39.7 19.8 62.9 35.7 94.5 6.1 12.2 12.9 24.3 17.9 32.3 1.9 2.9 3.4 5.4 3.4 5.7 0 .8 17.1 25.7 21.7 31.5 23.3 29.8 37.6 45.6 63.1 69.3 3.4 3.3 6 6.2 5.8 6.5-.2.4-.7 5.7-1.1 11.7-.4 6.1-.8 12.6-1 14.5-.2 1.9-.6 7.8-1 13-.3 5.2-.8 11.7-1 14.5-.2 2.7-.7 8.6-1 13-.3 4.4-.7 10.5-1 13.5-.2 3-.7 9.5-1 14.5-.3 4.9-.8 11.2-1 14-.8 8.9-1.4 17.8-2 28-.4 5.5-.8 11.7-1 13.8-.3 3-.1 3.7.8 2.9.7-.5 10.7-7.1 22.2-14.7 11.6-7.7 38.5-25.5 59.9-39.7 21.3-14.2 39.3-25.8 39.8-25.8.6 0 3.8 1.3 7.2 2.9 19.8 9.4 44.1 18.9 64.1 24.9 13.6 4.1 31.4 9 35.6 9.7 1.9.3 7 1.5 11.4 2.5 7.3 1.8 19.7 4 30 5.5 2.3.3 5 .7 6.1.9 1.1.2 4.5.7 7.5 1 3 .3 7.4.8 9.9 1.1 14.3 1.7 37 2.9 54.5 2.8 13.7 0 40.3-1 44.5-1.8 1.4-.2 5.9-.6 10.1-1 4.2-.3 8.5-.7 9.5-.9 1.1-.2 4.5-.7 7.8-1.1 6.5-.8 7.8-1 19.1-3 4.4-.8 9.4-1.7 11-1.9 13.2-2.3 43-10.1 62-16.4C754.9 906 835.9 850.5 895.6 777c16.2-20 26.8-35.5 43.8-63.7 5.1-8.6 18.4-35.6 23.9-48.5 13.9-32.6 26.7-76.9 31.1-107.8 2-13.8 3.7-28.4 4.3-36.7 1.5-19.2.8-70.1-1.1-82.3-.3-1.4-.7-5.3-1-8.7-.4-3.5-.8-6.8-1.1-7.5-.2-.7-.6-3.3-.9-5.8-.3-2.5-1.4-9.7-2.6-16-13-70.9-46.4-143.8-92.6-202-18.7-23.5-43-48.9-63.3-66-3-2.5-5.9-5-6.5-5.5-.6-.6-5.6-4.7-11.1-9C787.1 92.4 747 68.1 712 53c-4.1-1.8-9.3-4.1-11.6-5.1-5.2-2.3-14.2-5.9-17.4-6.9-1.4-.5-6.3-2.2-11-4-7.5-2.7-36.6-11.6-40.9-12.5-.9-.2-7.4-1.7-14.6-3.4-7.1-1.6-14.3-3.2-16-3.5-14.1-2.4-22.4-3.8-24.5-4.1-7.3-1-10.9-1.5-14.5-1.9-6.2-.7-16.4-1.8-21.5-2.3-5.7-.5-65.7-1.3-66.1-.9z"/></svg>